<?xml version="1.0" encoding="UTF-8" standalone="no"?>
<!-- Created with Inkscape (http://www.inkscape.org/) -->

<svg
   xmlns:dc="http://purl.org/dc/elements/1.1/"
   xmlns:cc="http://creativecommons.org/ns#"
   xmlns:rdf="http://www.w3.org/1999/02/22-rdf-syntax-ns#"
   xmlns:svg="http://www.w3.org/2000/svg"
   xmlns="http://www.w3.org/2000/svg"
   xmlns:sodipodi="http://sodipodi.sourceforge.net/DTD/sodipodi-0.dtd"
   xmlns:inkscape="http://www.inkscape.org/namespaces/inkscape"
   width="64px"
   height="64px"
   id="svg2985"
   version="1.1"
   inkscape:version="0.48.4 r9939"
   sodipodi:docname="voz_desativado2.svg"
   inkscape:export-filename="/var/www/html/slides carga cognitiva/imagens/slides/voz_desativado2.png"
   inkscape:export-xdpi="90"
   inkscape:export-ydpi="90">
  <defs
     id="defs2987" />
  <sodipodi:namedview
     id="base"
     pagecolor="#ffffff"
     bordercolor="#666666"
     borderopacity="1.0"
     inkscape:pageopacity="0.0"
     inkscape:pageshadow="2"
     inkscape:zoom="7.7781746"
     inkscape:cx="36.6938"
     inkscape:cy="34.121686"
     inkscape:current-layer="layer1"
     showgrid="true"
     inkscape:document-units="px"
     inkscape:grid-bbox="true"
     showguides="true"
     inkscape:guide-bbox="true"
     inkscape:window-width="1301"
     inkscape:window-height="744"
     inkscape:window-x="65"
     inkscape:window-y="24"
     inkscape:window-maximized="1">
    <sodipodi:guide
       orientation="1,0"
       position="20.05612,43.326361"
       id="guide2993" />
    <sodipodi:guide
       orientation="1,0"
       position="43.969185,59.525535"
       id="guide2995" />
    <sodipodi:guide
       orientation="1,0"
       position="64.025305,44.09775"
       id="guide2997" />
    <sodipodi:guide
       orientation="0,1"
       position="33.683996,64.025305"
       id="guide2999" />
    <sodipodi:guide
       orientation="0,1"
       position="20.05612,60.039794"
       id="guide3001" />
    <sodipodi:guide
       orientation="0,1"
       position="35.226774,0"
       id="guide3003" />
    <sodipodi:guide
       orientation="0,1"
       position="31.498393,3.9855109"
       id="guide3005" />
    <sodipodi:guide
       orientation="0,1"
       position="43.969185,15.942044"
       id="guide3007" />
    <sodipodi:guide
       orientation="0,1"
       position="-19.54186,38.055201"
       id="guide3019" />
    <sodipodi:guide
       orientation="0,1"
       position="32.012652,47.954696"
       id="guide3021" />
    <sodipodi:guide
       orientation="0,1"
       position="36.255293,28.027142"
       id="guide3023" />
    <sodipodi:guide
       orientation="0,1"
       position="32.012652,19.027601"
       id="guide3031" />
    <sodipodi:guide
       orientation="1,0"
       position="16.970563,47.954696"
       id="guide3033" />
    <sodipodi:guide
       orientation="1,0"
       position="47.054742,35.998163"
       id="guide3035" />
    <sodipodi:guide
       orientation="0,1"
       position="28.155706,56.954237"
       id="guide3041" />
    <sodipodi:guide
       orientation="0,1"
       position="56.182848,6.9425029"
       id="guide3043" />
    <sodipodi:guide
       orientation="0,1"
       position="23.655936,12.985052"
       id="guide3045" />
    <sodipodi:guide
       orientation="0,1"
       position="16,14.5"
       id="guide3049" />
    <sodipodi:guide
       orientation="1,0"
       position="-47.054742,51.425948"
       id="guide3869" />
    <sodipodi:guide
       orientation="1,0"
       position="14.013571,28.027142"
       id="guide3871" />
    <sodipodi:guide
       orientation="1,0"
       position="50.011734,28.027142"
       id="guide3873" />
    <sodipodi:guide
       orientation="0,1"
       position="32.012652,10.02806"
       id="guide3899" />
    <sodipodi:guide
       orientation="1,0"
       position="30.469874,70.067854"
       id="guide3905" />
    <sodipodi:guide
       orientation="1,0"
       position="33.555431,69.296465"
       id="guide3907" />
  </sodipodi:namedview>
  <metadata
     id="metadata2990">
    <rdf:RDF>
      <cc:Work
         rdf:about="">
        <dc:format>image/svg+xml</dc:format>
        <dc:type
           rdf:resource="http://purl.org/dc/dcmitype/StillImage" />
        <dc:title></dc:title>
      </cc:Work>
    </rdf:RDF>
  </metadata>
  <g
     id="layer1"
     inkscape:label="Layer 1"
     inkscape:groupmode="layer">
    <path
       style="fill:#ffffff;stroke:#000000;stroke-width:1px;stroke-linecap:butt;stroke-linejoin:miter;stroke-opacity:1"
       d="m 20.05612,32.815774 c 0,-19.927554 0,-19.927554 0,-19.927554 0,-12.08509782 23.913065,-12.08509782 23.913065,0 l 0,19.927554 c 0,12.085098 -23.913065,12.085098 -23.913065,0 z"
       id="path3029"
       inkscape:connector-curvature="0"
       sodipodi:nodetypes="ccccc"
       inkscape:export-xdpi="90"
       inkscape:export-ydpi="90" />
    <path
       style="fill:none;stroke:#000000;stroke-width:1px;stroke-linecap:butt;stroke-linejoin:miter;stroke-opacity:1"
       d="m 16.970563,22.787715 0,11.0276 c 0,15.04209 30.084179,15.04209 30.084179,0 l 0,-11.0276"
       id="path3039"
       inkscape:connector-curvature="0"
       sodipodi:nodetypes="cccc" />
    <path
       style="fill:#ffffff"
       d="M 30.399807,41.231122 C 27.593786,40.971286 24.779926,39.851829 23.085908,38.321387 22.323923,37.632978 21.476743,36.394348 21.065855,35.36794 L 20.711897,34.483746 20.67572,23.271754 C 20.6355,10.805021 20.61529,11.146644 21.491456,9.4792972 22.962929,6.6790775 26.285329,4.8511323 30.581443,4.4780936 35.947013,4.0121922 40.97978,6.175923 42.646397,9.6651632 c 0.777819,1.6284478 0.77075,1.4963008 0.729282,13.6334388 -0.03728,10.911143 -0.04136,11.065962 -0.310486,11.76987 -0.712784,1.864332 -1.600847,2.983315 -3.235334,4.076605 -2.412335,1.613585 -5.988672,2.404715 -9.430052,2.086045 l 0,0 z"
       id="path3051"
       inkscape:connector-curvature="0" />
    <path
       style="fill:#999999"
       d="M 30.399807,41.231122 C 27.593786,40.971286 24.779926,39.851829 23.085908,38.321387 22.323923,37.632978 21.476743,36.394348 21.065855,35.36794 l -0.353958,-0.884194 -0.03554,-11.214757 c -0.0395,-12.467231 -0.05974,-12.124879 0.815095,-13.7896918 1.47723,-2.8111736 4.789715,-4.626907 9.131109,-5.0052025 5.325381,-0.464037 10.361149,1.7100634 12.023832,5.1910685 0.777819,1.6284478 0.77075,1.4963008 0.729282,13.6334388 -0.03728,10.911143 -0.04136,11.065962 -0.310486,11.76987 -0.712784,1.864332 -1.600847,2.983315 -3.235334,4.076605 -2.412335,1.613585 -5.988672,2.404715 -9.430052,2.086045 l 0,0 z"
       id="path3072"
       inkscape:connector-curvature="0" />
    <path
       style="fill:#333333"
       d="m 29.021771,42.055477 c -2.197211,-0.368338 -4.67494,-1.422974 -6.167329,-2.625099 -0.948739,-0.764213 -1.858607,-1.904334 -2.408626,-3.018159 -0.822042,-1.66469 -0.82672,-1.741369 -0.82672,-13.551291 0,-6.891014 0.04775,-10.904568 0.135607,-11.398823 0.375786,-2.1139838 1.483355,-3.9233768 3.229705,-5.2762449 1.629869,-1.2626322 3.832554,-2.1646068 6.264239,-2.565135 2.059737,-0.3392639 4.978263,-0.2091509 7.004215,0.3122602 3.464949,0.8917605 6.103406,2.8015402 7.283448,5.2719389 0.859762,1.7998988 0.818656,1.1859098 0.8661,12.9365938 0.04671,11.569685 0.02002,12.163636 -0.620857,13.813873 -1.190688,3.065984 -4.544681,5.377808 -8.853752,6.102669 -1.487735,0.250265 -4.405358,0.248988 -5.90603,-0.0026 l 0,1e-6 z m 6.340975,-0.970997 c 4.317058,-0.851476 7.276545,-3.307701 7.978769,-6.621974 0.27872,-1.315466 0.275524,-21.925394 -0.0036,-23.249002 C 42.842715,8.8653092 41.288644,7.0309592 38.710984,5.7521012 34.784668,3.8041333 29.284888,3.7997522 25.343257,5.7414522 22.78419,7.0020829 21.339022,8.6696479 20.716858,11.07981 c -0.290157,1.124021 -0.293974,22.337098 -0.0042,23.565962 0.382247,1.621244 1.408395,3.167402 2.801199,4.22073 2.936132,2.220492 7.502469,3.075256 11.848934,2.217978 z"
       id="path3074"
       inkscape:connector-curvature="0" />
    <path
       style="fill:#333333"
       d="M 28.738004,45.287075 C 22.448423,44.262381 18.166149,41.091533 16.888983,36.513363 16.623035,35.560039 16.607523,35.210098 16.563929,29.180445 l -0.04578,-6.33182 0.457671,0 0.457672,0 0,6.034144 c 0,6.894509 0.03241,7.201494 0.957859,9.072228 0.622628,1.258603 1.319659,2.168127 2.320545,3.027973 2.756755,2.368287 6.618918,3.611898 11.249426,3.6223 5.065978,0.01138 9.055865,-1.384956 11.838936,-4.143258 1.022323,-1.013225 1.323363,-1.407597 1.766489,-2.314167 0.983528,-2.01215 0.967674,-1.872756 1.01982,-8.9674 l 0.04654,-6.33182 0.451946,0 0.451946,0 -0.05009,6.267538 c -0.04767,5.964569 -0.06368,6.316697 -0.331088,7.284527 -0.536451,1.941559 -1.392331,3.389908 -2.825481,4.781374 -1.949298,1.8926 -4.572002,3.182514 -7.964213,3.917007 -1.640758,0.355262 -5.949646,0.46146 -7.628119,0.188004 l 0,0 z"
       id="path3076"
       inkscape:connector-curvature="0" />
    <path
       style="fill:#333333"
       d="M 28.830942,41.941012 C 27.618746,41.713298 25.818448,41.087316 24.723121,40.51268 22.966912,39.591329 21.612841,38.317125 20.7072,36.733631 20.484773,36.344722 20.255626,36.00712 20.197985,35.983402 c -0.05764,-0.02372 -0.08047,-0.08248 -0.05074,-0.130595 0.02973,-0.04811 -0.03887,-0.404757 -0.152444,-0.792549 -0.180159,-0.615123 -0.21261,-2.022272 -0.254357,-11.029445 -0.03133,-6.760218 -8.9e-5,-10.821246 0.09051,-11.763686 0.0761,-0.791624 0.152127,-1.583953 0.168956,-1.760729 0.01683,-0.176777 0.06069,-0.35034 0.09747,-0.385695 0.03678,-0.03535 0.255377,-0.4409778 0.485765,-0.9013838 1.369996,-2.7377883 4.478069,-4.7773639 8.271401,-5.4278482 0.485432,-0.083242 0.882521,-0.1829642 0.88242,-0.2216041 -3.98e-4,-0.1525796 4.982627,0.1001597 5.878851,0.2981756 4.69868,1.0381476 8.03695,3.9686887 8.532744,7.4905735 0.09378,0.666203 0.148056,4.657987 0.15884,11.682856 0.01849,12.048488 0.04706,11.646562 -0.966115,13.594425 -1.226204,2.357425 -3.826129,4.217305 -7.02102,5.022549 -0.61551,0.155134 -1.148036,0.312742 -1.183392,0.350239 -0.155513,0.164935 -5.365311,0.109025 -6.305933,-0.06767 l 0,0 z m 4.91024,-0.584087 c 0.732275,-0.07348 1.857721,-0.272246 2.500989,-0.441697 1.265568,-0.333379 3.00878,-1.057252 3.00878,-1.249405 0,-0.06542 0.04906,-0.08862 0.109017,-0.05156 0.169903,0.105006 1.562634,-0.964569 2.24665,-1.725361 1.500621,-1.669051 1.740321,-2.451567 1.909461,-6.233579 0.165201,-3.693909 0.0524,-19.186273 -0.14837,-20.377532 -0.628421,-3.7287058 -4.528423,-6.4619574 -9.923494,-6.954719 -1.53018,-0.1397596 -3.965184,8.807e-4 -4.672721,0.2698858 -0.175995,0.066914 -0.319992,0.098204 -0.319992,0.069535 0,-0.028669 -0.188026,0.00505 -0.417836,0.074922 -0.229809,0.069876 -0.562471,0.1556815 -0.739248,0.1906784 -0.491721,0.097347 -2.245984,0.8781121 -3.050005,1.3574574 -1.014018,0.6045419 -2.340627,1.9567299 -2.816612,2.8709206 -0.93984,1.8050858 -0.883038,0.9698128 -0.883038,12.9850508 0,5.939697 0.02303,11.175502 0.05119,11.635121 0.07798,1.273012 0.979302,3.485305 1.501633,3.685743 0.100542,0.03858 0.182804,0.144008 0.182804,0.234281 0,0.362877 1.685523,1.64397 3.013003,2.290053 2.485553,1.209715 5.375704,1.67849 8.447791,1.370209 l 0,0 z"
       id="path3848"
       inkscape:connector-curvature="0" />
    <path
       style="fill:#333333"
       d="M 28.224466,48.306993 C 20.735728,47.136524 15.637004,43.514584 14.116336,38.285112 13.799683,37.196166 13.781213,36.796442 13.729307,29.908996 l -0.0545,-7.232599 0.544929,0 0.544933,0 0,6.892575 c 0,7.875338 0.03858,8.225996 1.140481,10.362865 0.741337,1.437654 1.571262,2.476569 2.762975,3.458739 3.282352,2.705205 7.880866,4.125735 13.394216,4.137617 6.031846,0.013 10.782437,-1.581983 14.096122,-4.732688 1.217236,-1.157368 1.575672,-1.607845 2.103283,-2.643385 1.171045,-2.298403 1.152169,-2.139179 1.214257,-10.243124 l 0.05541,-7.232599 0.538114,0 0.538113,0 -0.05964,7.159173 c -0.05676,6.813102 -0.07582,7.215325 -0.394213,8.32084 -0.638729,2.21777 -1.65779,3.872165 -3.36418,5.461584 -2.320947,2.161845 -5.44369,3.635266 -9.482652,4.474249 -1.953581,0.405803 -7.083993,0.527109 -9.08248,0.21475 l 0,0 z"
       inkscape:connector-curvature="0"
       id="path3076-2" />
    <path
       style="fill:none;stroke:#000000;stroke-width:1px;stroke-linecap:butt;stroke-linejoin:miter;stroke-opacity:1"
       d="m 14.013571,22.787715 2.956992,0"
       id="path3901"
       inkscape:connector-curvature="0" />
    <path
       style="fill:none;stroke:#000000;stroke-width:1px;stroke-linecap:butt;stroke-linejoin:miter;stroke-opacity:1"
       d="m 47.054742,22.787715 2.956992,0"
       id="path3903"
       inkscape:connector-curvature="0" />
    <path
       style="fill:#ffffff;stroke:#000000;stroke-width:1px;stroke-linecap:butt;stroke-linejoin:miter;stroke-opacity:1"
       d="m 30.469874,51.014948 3.085557,0 0,6.042549 10.413754,0 0,2.956992 -23.913065,0 0,-2.956992 10.413754,0 z"
       id="path3911"
       inkscape:connector-curvature="0" />
    <path
       style="fill:#b3b3b3;fill-opacity:1"
       d="m 29.51988,41.107227 c 0,-0.05044 -0.274807,-0.131554 -0.610683,-0.180251 -0.882761,-0.127986 -2.774175,-0.781109 -3.752322,-1.295713 -1.862372,-0.979794 -3.227724,-2.43692 -3.992365,-4.260719 l -0.387041,-0.923158 9.71e-4,-11.097657 c 6.02e-4,-6.879206 0.05064,-11.415314 0.13165,-11.93333 0.243977,-1.5602081 1.386229,-3.3339433 2.860837,-4.4424264 4.765716,-3.5824531 13.234015,-3.20967 17.352483,0.7638739 0.770206,0.7431029 1.387566,1.7059268 1.78163,2.7785985 l 0.306999,0.835672 0,11.570838 0,11.570838 -0.293497,0.725854 c -1.155175,2.856888 -3.725801,4.774087 -7.578476,5.652103 -1.015238,0.23137 -1.693768,0.290193 -3.538159,0.306729 -1.255115,0.01125 -2.282027,-0.02081 -2.282027,-0.07125 z"
       id="path3932"
       inkscape:connector-curvature="0" />
    <path
       style="fill:#b3b3b3;fill-opacity:1"
       d="M 29.198468,47.33143 C 26.55917,47.051646 23.40991,46.141215 21.427945,45.085021 18.67868,43.619932 17.066161,42.037464 15.843014,39.604175 14.945326,37.818343 14.958266,37.945664 14.895665,30.283294 l -0.05646,-6.910362 0.77465,0 0.77465,0 0.04912,6.138973 c 0.05239,6.546986 0.0419,6.429161 0.737693,8.288835 0.828663,2.2148 3.163978,4.576394 5.858807,5.924736 1.067618,0.534177 3.182899,1.220565 4.720844,1.531868 1.254736,0.253978 1.82176,0.291417 4.336205,0.286311 2.505803,-0.0051 3.073264,-0.04476 4.24264,-0.296562 5.23917,-1.128175 8.677475,-3.508132 10.374497,-7.181115 0.816011,-1.766148 0.843975,-2.034595 0.904485,-8.682638 l 0.05471,-6.010408 0.889964,0 0.889965,0 -0.0046,4.017652 c -0.0057,4.9214 -0.191014,10.011287 -0.389731,10.703026 -0.08125,0.282842 -0.411436,1.063874 -0.733741,1.735625 -0.508107,1.058999 -0.749807,1.384755 -1.818131,2.450408 -2.535522,2.529184 -5.55507,4.044282 -9.49188,4.762675 -1.19697,0.218424 -2.112623,0.282816 -4.403882,0.309694 -1.59099,0.01866 -3.124126,0.0094 -3.406969,-0.02058 l -5e-6,0 z"
       id="path3981"
       inkscape:connector-curvature="0" />
    <path
       style="fill:#b3b3b3;fill-opacity:1"
       d="m 20.648904,58.535424 0,-0.964237 5.206877,0 5.206878,0 0,-3.021274 0,-3.021275 0.964236,0 0.964237,0 0,3.021275 0,3.021274 5.206877,0 5.206877,0 0,0.964237 0,0.964236 -11.377991,0 -11.377991,0 0,-0.964236 z"
       id="path3983"
       inkscape:connector-curvature="0" />
    <path
       style="fill:#b3b3b3;fill-opacity:1"
       d="m 30.989385,54.48563 c 0,-1.6617 0.01832,-2.341487 0.04072,-1.510637 0.02239,0.830851 0.02239,2.190424 0,3.021275 -0.02239,0.83085 -0.04072,0.151063 -0.04072,-1.510638 z"
       id="path3985"
       inkscape:connector-curvature="0" />
    <path
       style="fill:#b3b3b3;fill-opacity:1"
       d="m 30.989385,54.48563 c 0,-1.6617 0.01832,-2.341487 0.04072,-1.510637 0.02239,0.830851 0.02239,2.190424 0,3.021275 -0.02239,0.83085 -0.04072,0.151063 -0.04072,-1.510638 z"
       id="path3987"
       inkscape:connector-curvature="0" />
    <path
       style="fill:#ffffff;fill-opacity:1"
       d="m 28.744168,40.835162 c -1.656526,-0.417093 -3.282729,-1.060945 -4.24989,-1.682632 -0.926997,-0.59587 -2.17947,-1.831555 -2.622249,-2.5871 -0.191182,-0.326227 -0.403375,-0.593141 -0.47154,-0.593141 -0.06816,0 -0.09198,-0.05171 -0.05292,-0.114901 0.03906,-0.0632 -0.06949,-0.424784 -0.241213,-0.80353 l -0.312225,-0.68863 -0.01154,-5.206877 c -0.0063,-2.863782 0.03369,-8.128514 0.08898,-11.699403 l 0.100514,-6.492526 0.474499,-0.964236 c 0.711376,-1.4455984 1.587695,-2.4372855 2.942364,-3.3297304 1.104928,-0.727918 2.735889,-1.4324352 3.761524,-1.6248456 0.258201,-0.048439 0.469456,-0.1250225 0.469456,-0.170186 0,-0.093212 0.0283,-0.095605 2.58714,-0.2187975 2.1074,-0.1014584 3.348362,0.029252 5.10177,0.5373702 3.221089,0.9334349 5.423271,2.6906261 6.451396,5.1477763 l 0.385003,0.920129 0.0039,11.639253 c 0.0021,6.401589 -0.01176,11.715095 -0.03088,11.807793 -0.01911,0.0927 -0.07236,0.197467 -0.118326,0.232822 -0.04597,0.03536 -0.10382,0.179991 -0.128565,0.321412 -0.02474,0.141422 -0.07538,0.286057 -0.112522,0.321413 -0.03714,0.03535 -0.268558,0.402418 -0.51426,0.815696 -0.531295,0.89366 -1.976771,2.293532 -2.985374,2.891189 -1.171564,0.694222 -2.425644,1.160023 -4.275292,1.587964 -0.282843,0.06544 -1.495081,0.159198 -2.693864,0.208352 -2.091842,0.08577 -2.234617,0.07552 -3.545855,-0.254634 l 10e-7,0 z"
       id="path4050"
       inkscape:connector-curvature="0" />
    <path
       style="fill:#ffffff;fill-opacity:1"
       d="m 27.977102,47.090089 c -3.157282,-0.538846 -6.16971,-1.687703 -8.316203,-3.171573 -1.826574,-1.262709 -3.526614,-3.463081 -4.2232,-5.466113 -0.353729,-1.017148 -0.386747,-1.685976 -0.511175,-10.354712 l -0.06782,-4.724759 0.690245,0 0.690244,0 0.08353,1.176835 c 0.04594,0.647259 0.08445,2.946963 0.08557,5.110453 0.0026,5.11735 0.126408,6.629493 0.654711,7.999427 0.221207,0.573608 0.496595,1.142147 0.611973,1.263418 0.115377,0.12127 0.22902,0.302324 0.252539,0.402344 0.141614,0.602247 2.134049,2.579385 3.608082,3.580381 1.63213,1.108359 4.517553,2.154958 6.955758,2.522991 2.142255,0.323361 7.808035,0.171515 7.949862,-0.213059 0.02372,-0.06431 0.09716,-0.08353 0.163219,-0.0427 0.105576,0.06525 0.697115,-0.07222 1.272155,-0.295645 0.106066,-0.04121 0.234165,-0.06643 0.284664,-0.05605 0.194492,0.03998 2.249678,-0.784077 3.240336,-1.299263 2.585471,-1.344563 4.627068,-3.530762 5.598314,-5.99483 0.450055,-1.141803 0.493358,-1.614076 0.572844,-6.247554 0.04246,-2.474874 0.112552,-5.266339 0.15577,-6.203255 l 0.07858,-1.703485 0.822466,0 0.822466,0 -0.0737,4.917606 c -0.04054,2.704684 -0.13002,5.984828 -0.198848,7.28921 l -0.125145,2.371605 -0.529841,1.208121 c -0.669472,1.526501 -1.347609,2.447617 -2.641135,3.587454 -2.84225,2.504555 -5.951599,3.866286 -9.935238,4.35111 -1.848788,0.225006 -6.634025,0.220232 -7.971022,-0.0079 l 0,-4e-6 z"
       id="path4052"
       inkscape:connector-curvature="0" />
    <path
       style="fill:#ffffff;fill-opacity:1"
       d="m 20.648904,58.535424 0,-0.964237 5.206877,0 5.206878,0 0,-3.021274 0,-3.021275 0.964236,0 0.964237,0 0,3.021275 0,3.021274 5.206877,0 5.206877,0 0,0.964237 0,0.964236 -11.377991,0 -11.377991,0 0,-0.964236 z"
       id="path4054"
       inkscape:connector-curvature="0" />
  </g>
</svg>
