<?xml version="1.0" encoding="UTF-8" standalone="no"?>
<!-- Created with Inkscape (http://www.inkscape.org/) -->

<svg
   xmlns:dc="http://purl.org/dc/elements/1.1/"
   xmlns:cc="http://creativecommons.org/ns#"
   xmlns:rdf="http://www.w3.org/1999/02/22-rdf-syntax-ns#"
   xmlns:svg="http://www.w3.org/2000/svg"
   xmlns="http://www.w3.org/2000/svg"
   xmlns:sodipodi="http://sodipodi.sourceforge.net/DTD/sodipodi-0.dtd"
   xmlns:inkscape="http://www.inkscape.org/namespaces/inkscape"
   width="64px"
   height="64px"
   id="svg2985"
   version="1.1"
   inkscape:version="0.48.4 r9939"
   sodipodi:docname="voz.svg"
   inkscape:export-filename="/var/www/html/slides carga cognitiva/imagens/slides/voz.png"
   inkscape:export-xdpi="90"
   inkscape:export-ydpi="90">
  <defs
     id="defs2987" />
  <sodipodi:namedview
     id="base"
     pagecolor="#ffffff"
     bordercolor="#666666"
     borderopacity="1.0"
     inkscape:pageopacity="0.0"
     inkscape:pageshadow="2"
     inkscape:zoom="7.7781746"
     inkscape:cx="24.221718"
     inkscape:cy="35.088725"
     inkscape:current-layer="layer1"
     showgrid="true"
     inkscape:document-units="px"
     inkscape:grid-bbox="true"
     showguides="true"
     inkscape:guide-bbox="true"
     inkscape:window-width="1301"
     inkscape:window-height="744"
     inkscape:window-x="65"
     inkscape:window-y="24"
     inkscape:window-maximized="1">
    <sodipodi:guide
       orientation="1,0"
       position="20.05612,43.326361"
       id="guide2993" />
    <sodipodi:guide
       orientation="1,0"
       position="43.969185,59.525535"
       id="guide2995" />
    <sodipodi:guide
       orientation="1,0"
       position="64.025305,44.09775"
       id="guide2997" />
    <sodipodi:guide
       orientation="0,1"
       position="33.683996,64.025305"
       id="guide2999" />
    <sodipodi:guide
       orientation="0,1"
       position="20.05612,60.039794"
       id="guide3001" />
    <sodipodi:guide
       orientation="0,1"
       position="35.226774,0"
       id="guide3003" />
    <sodipodi:guide
       orientation="0,1"
       position="31.498393,3.9855109"
       id="guide3005" />
    <sodipodi:guide
       orientation="0,1"
       position="43.969185,15.942044"
       id="guide3007" />
    <sodipodi:guide
       orientation="0,1"
       position="-19.54186,38.055201"
       id="guide3019" />
    <sodipodi:guide
       orientation="0,1"
       position="32.012652,47.954696"
       id="guide3021" />
    <sodipodi:guide
       orientation="0,1"
       position="36.255293,28.027142"
       id="guide3023" />
    <sodipodi:guide
       orientation="1,0"
       position="32.012652,55.668588"
       id="guide3025" />
    <sodipodi:guide
       orientation="0,1"
       position="32.012652,19.027601"
       id="guide3031" />
    <sodipodi:guide
       orientation="1,0"
       position="16.970563,47.954696"
       id="guide3033" />
    <sodipodi:guide
       orientation="1,0"
       position="47.054742,35.998163"
       id="guide3035" />
    <sodipodi:guide
       orientation="0,1"
       position="28.155706,56.954237"
       id="guide3041" />
    <sodipodi:guide
       orientation="0,1"
       position="56.182848,6.9425029"
       id="guide3043" />
    <sodipodi:guide
       orientation="0,1"
       position="23.655936,12.985052"
       id="guide3045" />
    <sodipodi:guide
       orientation="0,1"
       position="16,14.5"
       id="guide3049" />
  </sodipodi:namedview>
  <metadata
     id="metadata2990">
    <rdf:RDF>
      <cc:Work
         rdf:about="">
        <dc:format>image/svg+xml</dc:format>
        <dc:type
           rdf:resource="http://purl.org/dc/dcmitype/StillImage" />
        <dc:title></dc:title>
      </cc:Work>
    </rdf:RDF>
  </metadata>
  <g
     id="layer1"
     inkscape:label="Layer 1"
     inkscape:groupmode="layer">
    <path
       style="fill:#ffffff;stroke:#000000;stroke-width:1px;stroke-linecap:butt;stroke-linejoin:miter;stroke-opacity:1"
       d="m 20.05612,35.972858 c 0,-19.927554 0,-19.927554 0,-19.927554 0,-12.085098 23.913065,-12.085098 23.913065,0 l 0,19.927554 c 0,12.085098 -23.913065,12.085098 -23.913065,0 z"
       id="path3029"
       inkscape:connector-curvature="0"
       sodipodi:nodetypes="ccccc"
       inkscape:export-xdpi="90"
       inkscape:export-ydpi="90" />
    <path
       style="fill:none;stroke:#000000;stroke-width:1px;stroke-linecap:butt;stroke-linejoin:miter;stroke-opacity:1"
       d="m 16.970563,25.944799 0,11.0276 c 0,15.04209 30.084179,15.04209 30.084179,0 l 0,-11.0276"
       id="path3039"
       inkscape:connector-curvature="0"
       sodipodi:nodetypes="cccc" />
    <path
       style="fill:none;stroke:#000000;stroke-width:1px;stroke-linecap:butt;stroke-linejoin:miter;stroke-opacity:1"
       d="m 32.012652,49.5 0,7.557497 11.956533,0 -23.913065,0"
       id="path3047"
       inkscape:connector-curvature="0"
       sodipodi:nodetypes="cccc" />
    <path
       style="fill:#ffffff"
       d="M 30.399807,44.388206 C 27.593786,44.12837 24.779926,43.008913 23.085908,41.478471 22.323923,40.790062 21.476743,39.551432 21.065855,38.525024 L 20.711897,37.64083 20.67572,26.428838 c -0.04022,-12.466733 -0.06043,-12.12511 0.815736,-13.792457 1.471473,-2.8002197 4.793873,-4.6281649 9.089987,-5.0012036 5.36557,-0.4659014 10.398337,1.6978294 12.064954,5.1870696 0.777819,1.628448 0.77075,1.496301 0.729282,13.633439 -0.03728,10.911143 -0.04136,11.065962 -0.310486,11.76987 -0.712784,1.864332 -1.600847,2.983315 -3.235334,4.076605 -2.412335,1.613585 -5.988672,2.404715 -9.430052,2.086045 l 0,0 z"
       id="path3051"
       inkscape:connector-curvature="0" />
    <path
       style="fill:#999999"
       d="M 30.399807,44.388206 C 27.593786,44.12837 24.779926,43.008913 23.085908,41.478471 22.323923,40.790062 21.476743,39.551432 21.065855,38.525024 L 20.711897,37.64083 20.676361,26.426073 c -0.0395,-12.467231 -0.05974,-12.124879 0.815095,-13.789692 1.47723,-2.8111736 4.789715,-4.626907 9.131109,-5.0052025 5.325381,-0.464037 10.361149,1.7100634 12.023832,5.1910685 0.777819,1.628448 0.77075,1.496301 0.729282,13.633439 -0.03728,10.911143 -0.04136,11.065962 -0.310486,11.76987 -0.712784,1.864332 -1.600847,2.983315 -3.235334,4.076605 -2.412335,1.613585 -5.988672,2.404715 -9.430052,2.086045 l 0,0 z"
       id="path3072"
       inkscape:connector-curvature="0" />
    <path
       style="fill:#333333"
       d="m 29.021771,45.212561 c -2.197211,-0.368338 -4.67494,-1.422974 -6.167329,-2.625099 -0.948739,-0.764213 -1.858607,-1.904334 -2.408626,-3.018159 -0.822042,-1.66469 -0.82672,-1.741369 -0.82672,-13.551291 0,-6.891014 0.04775,-10.904568 0.135607,-11.398823 0.375786,-2.113984 1.483355,-3.923377 3.229705,-5.2762451 1.629869,-1.2626322 3.832554,-2.1646068 6.264239,-2.565135 2.059737,-0.3392639 4.978263,-0.2091509 7.004215,0.3122602 3.464949,0.8917605 6.103406,2.8015402 7.283448,5.2719389 0.859762,1.799899 0.818656,1.18591 0.8661,12.936594 0.04671,11.569685 0.02002,12.163636 -0.620857,13.813873 -1.190688,3.065984 -4.544681,5.377808 -8.853752,6.102669 -1.487735,0.250265 -4.405358,0.248988 -5.90603,-0.0026 l 0,10e-7 z m 6.340975,-0.970997 c 4.317058,-0.851476 7.276545,-3.307701 7.978769,-6.621974 0.27872,-1.315466 0.275524,-21.925394 -0.0036,-23.249002 -0.4952,-2.348195 -2.049271,-4.182545 -4.626931,-5.461403 -3.926316,-1.9479679 -9.426096,-1.952349 -13.367727,-0.010649 -2.559067,1.2606307 -4.004235,2.9281957 -4.626399,5.3383577 -0.290157,1.124021 -0.293974,22.337098 -0.0042,23.565962 0.382247,1.621244 1.408395,3.167402 2.801199,4.22073 2.936132,2.220492 7.502469,3.075256 11.848934,2.217978 z"
       id="path3074"
       inkscape:connector-curvature="0" />
    <path
       style="fill:#333333"
       d="M 28.738004,48.444159 C 22.448423,47.419465 18.166149,44.248617 16.888983,39.670447 16.623035,38.717123 16.607523,38.367182 16.563929,32.337529 l -0.04578,-6.33182 0.457671,0 0.457672,0 0,6.034144 c 0,6.894509 0.03241,7.201494 0.957859,9.072228 0.622628,1.258603 1.319659,2.168127 2.320545,3.027973 2.756755,2.368287 6.618918,3.611898 11.249426,3.6223 5.065978,0.01138 9.055865,-1.384956 11.838936,-4.143258 1.022323,-1.013225 1.323363,-1.407597 1.766489,-2.314167 0.983528,-2.01215 0.967674,-1.872756 1.01982,-8.9674 l 0.04654,-6.33182 0.451946,0 0.451946,0 -0.05009,6.267538 c -0.04767,5.964569 -0.06368,6.316697 -0.331088,7.284527 -0.536451,1.941559 -1.392331,3.389908 -2.825481,4.781374 -1.949298,1.8926 -4.572002,3.182514 -7.964213,3.917007 -1.640758,0.355262 -5.949646,0.46146 -7.628119,0.188004 l 0,0 z"
       id="path3076"
       inkscape:connector-curvature="0" />
    <path
       style="fill:#333333"
       d="m 20.133355,57.054125 0,-0.449977 5.721137,0 5.721136,0 0,-3.535534 0,-3.535534 0.449978,0 0.449977,0 0,3.535534 0,3.535534 5.721136,0 5.721137,0 0,0.449977 0,0.449977 -11.89225,0 -11.892251,0 0,-0.449977 z"
       id="path3078"
       inkscape:connector-curvature="0" />
    <path
       style="fill:#333333"
       d="M 28.830942,45.098096 C 27.618746,44.870382 25.818448,44.2444 24.723121,43.669764 22.966912,42.748413 21.612841,41.474209 20.7072,39.890715 c -0.222427,-0.388909 -0.451574,-0.726511 -0.509215,-0.750229 -0.05764,-0.02372 -0.08047,-0.08248 -0.05074,-0.130595 0.02973,-0.04811 -0.03887,-0.404757 -0.152444,-0.792549 -0.180159,-0.615123 -0.21261,-2.022272 -0.254357,-11.029445 -0.03133,-6.760218 -8.9e-5,-10.821246 0.09051,-11.763686 0.0761,-0.791624 0.152127,-1.583953 0.168956,-1.760729 0.01683,-0.176777 0.06069,-0.35034 0.09747,-0.385695 0.03678,-0.03535 0.255377,-0.440978 0.485765,-0.901384 1.369996,-2.7377883 4.478069,-4.7773639 8.271401,-5.4278482 0.485432,-0.083242 0.882521,-0.1829642 0.88242,-0.2216041 -3.98e-4,-0.1525796 4.982627,0.1001597 5.878851,0.2981756 4.69868,1.0381476 8.03695,3.9686887 8.532744,7.4905737 0.09378,0.666203 0.148056,4.657987 0.15884,11.682856 0.01849,12.048488 0.04706,11.646562 -0.966115,13.594425 -1.226204,2.357425 -3.826129,4.217305 -7.02102,5.022549 -0.61551,0.155134 -1.148036,0.312742 -1.183392,0.350239 -0.155513,0.164935 -5.365311,0.109025 -6.305933,-0.06767 l 0,0 z m 4.91024,-0.584087 c 0.732275,-0.07348 1.857721,-0.272246 2.500989,-0.441697 1.265568,-0.333379 3.00878,-1.057252 3.00878,-1.249405 0,-0.06542 0.04906,-0.08862 0.109017,-0.05156 0.169903,0.105006 1.562634,-0.964569 2.24665,-1.725361 1.500621,-1.669051 1.740321,-2.451567 1.909461,-6.233579 0.165201,-3.693909 0.0524,-19.186273 -0.14837,-20.377532 -0.628421,-3.728706 -4.528423,-6.4619576 -9.923494,-6.9547192 -1.53018,-0.1397596 -3.965184,8.807e-4 -4.672721,0.2698858 -0.175995,0.066914 -0.319992,0.098204 -0.319992,0.069535 0,-0.028669 -0.188026,0.00505 -0.417836,0.074922 -0.229809,0.069876 -0.562471,0.1556815 -0.739248,0.1906784 -0.491721,0.097347 -2.245984,0.8781121 -3.050005,1.3574574 -1.014018,0.6045419 -2.340627,1.9567299 -2.816612,2.8709209 -0.93984,1.805086 -0.883038,0.969813 -0.883038,12.985051 0,5.939697 0.02303,11.175502 0.05119,11.635121 0.07798,1.273012 0.979302,3.485305 1.501633,3.685743 0.100542,0.03858 0.182804,0.144008 0.182804,0.234281 0,0.362877 1.685523,1.64397 3.013003,2.290053 2.485553,1.209715 5.375704,1.67849 8.447791,1.370209 l 0,0 z"
       id="path3848"
       inkscape:connector-curvature="0" />
  </g>
</svg>
